# xmcd
#
# Track frame offsets: 
#        225
#        11742
#        26070
#        36575
#        45067
#        55847
#        73290
#        82172
#        92957
#        103632
#        121187
#        132610
#
# Disc length: 1928 seconds
#
# Revision: 0
# Processed by: cddbd v1.4PL0 Copyright (c) Steve Scherf et al.
# Submitted via: ExactAudioCopy v0.90a11
#
DISCID=aa07850c
DTITLE=Sleepy LaBeef - Down Home Rockabilly 
DYEAR=1900
DGENRE=
TTITLE0=Boogie Woogie Country Girl
TTITLE1=Red Hot
TTITLE2=Jack and Jill Boogie
TTITLE3=Mystery Train
TTITLE4=Rock and Roll Ruby
TTITLE5=Blues Stay Away From Me
TTITLE6=Flying Saucers Rock and Roll
TTITLE7=Tore Up
TTITLE8=Honky Tonk Hardwood Floor
TTITLE9=There is Something on Your Mind
TTITLE10=Shotgun Boogie
TTITLE11=Big Boss Man
EXTD=
EXTT0=
EXTT1=
EXTT2=
EXTT3=
EXTT4=
EXTT5=
EXTT6=
EXTT7=
EXTT8=
EXTT9=
EXTT10=
EXTT11=
PLAYORDER=
